<svg width="321" height="327" viewBox="0 0 321 327" fill="none" xmlns="http://www.w3.org/2000/svg">
<path fill-rule="evenodd" clip-rule="evenodd" d="M317.864 191.488C318.23 189.313 318.554 187.123 318.836 184.92L107.75 9.16518C105.707 9.89856 103.684 10.6733 101.68 11.4883L317.864 191.488ZM100.634 11.9183C97.6233 13.1688 94.6579 14.5106 91.7415 15.9405L315.654 202.375C316.419 199.161 317.091 195.91 317.668 192.625L100.634 11.9183ZM318.982 183.741C319.301 181.097 319.558 178.433 319.752 175.752L116.316 6.36624C113.8 7.1085 111.309 7.91246 108.845 8.77641L318.982 183.741ZM315.392 203.458L90.7614 16.4253C88.6194 17.4941 86.5042 18.6105 84.4171 19.7732L313.497 210.51C314.178 208.181 314.811 205.83 315.392 203.458ZM313.188 211.554L83.484 20.2972C81.4421 21.4529 79.4276 22.6532 77.4417 23.8966L310.988 218.353C311.768 216.109 312.502 213.842 313.188 211.554ZM310.635 219.359L76.5527 24.4573C73.9789 26.0926 71.4539 27.8007 68.9803 29.579L307.291 228.002C308.483 225.162 309.598 222.28 310.635 219.359ZM300.024 243.115C298.6 245.727 297.107 248.294 295.55 250.816L49.5702 46.0076C51.6658 43.9299 53.8169 41.9105 56.0209 39.9519L300.024 243.115ZM300.509 242.218L56.7791 39.2824C58.4675 37.8007 60.1866 36.3546 61.9351 34.945L303.603 236.163C302.612 238.206 301.58 240.225 300.509 242.218ZM281.387 270.36C283.273 268.124 285.101 265.836 286.869 263.497L39.2117 57.2924C37.337 59.5378 35.5207 61.8359 33.7652 64.1841L281.387 270.36ZM39.8548 56.527L287.47 262.697C288.602 261.18 289.708 259.642 290.789 258.084L43.5902 52.2606C42.3212 53.6601 41.0758 55.0825 39.8548 56.527ZM269.414 283.096C267.275 285.14 265.081 287.123 262.835 289.045L19.68 86.5889C21.0602 83.9417 22.5094 81.338 24.0252 78.7802L269.414 283.096ZM270.139 282.399L24.5438 77.9111C25.8997 75.6551 27.3075 73.4353 28.7656 71.2535L275.645 276.811C273.854 278.719 272.018 280.582 270.139 282.399ZM241.908 304.211C244.53 302.618 247.103 300.95 249.625 299.21L12.6648 101.911C11.5201 104.793 10.4533 107.715 9.46716 110.675L241.908 304.211ZM13.0558 100.936L250.477 298.618C252.345 297.312 254.184 295.966 255.994 294.581L15.7854 94.5783C14.8331 96.6738 13.9229 98.7934 13.0558 100.936ZM227.388 312.03C224.43 313.428 221.424 314.737 218.373 315.951L3.08661 136.699C3.62084 133.381 4.25262 130.096 4.97883 126.848L227.388 312.03ZM228.381 311.557L5.22733 125.754C5.70011 123.705 6.21054 121.67 6.75783 119.652L233.892 308.769C232.075 309.733 230.238 310.663 228.381 311.557ZM189.324 324.355C192.976 323.674 196.584 322.867 200.144 321.937L1.10816 156.215C1.00478 158.63 0.952545 161.059 0.952545 163.5C0.952545 164.855 0.968628 166.205 1.00061 167.552L189.324 324.355ZM1.16641 154.963L201.329 321.622C203.9 320.929 206.447 320.171 208.966 319.351L1.77141 146.836C1.50555 149.526 1.30336 152.236 1.16641 154.963ZM166.931 326.873C164.822 326.957 162.702 327 160.573 327C158.085 327 155.611 326.942 153.152 326.826L5.95402 204.266C4.82047 199.742 3.87118 195.142 3.11484 190.476L166.931 326.873ZM168.413 326.806L2.87917 188.979C2.39395 185.802 1.99801 182.596 1.69405 179.362L177.872 326.051C174.745 326.396 171.591 326.649 168.413 326.806ZM151.485 326.739L6.37735 205.92C7.39672 209.817 8.55318 213.657 9.8411 217.434L139.782 325.626C143.641 326.14 147.544 326.513 151.485 326.739ZM27.1077 253.215C22.8437 246.574 19.0395 239.594 15.7416 232.325L124.378 322.779C116.748 320.967 109.327 318.594 102.16 315.706L27.1077 253.215ZM126.537 323.275L14.8206 230.257C13.2478 226.66 11.7983 222.994 10.4774 219.265L137.905 325.364C134.07 324.806 130.279 324.107 126.537 323.275ZM28.9936 256.087C46.2787 281.811 70.5675 302.214 99.0408 314.41L28.9936 256.087ZM179.245 325.893L1.56786 177.956C1.31116 174.954 1.13364 171.929 1.03744 168.884L188.042 324.588C185.136 325.104 182.203 325.54 179.245 325.893ZM1.89421 145.637L210.085 318.982C212.52 318.169 214.93 317.297 217.312 316.369L2.90557 137.849C2.50921 140.426 2.17161 143.022 1.89421 145.637ZM234.844 308.26L7.04865 118.593C7.69432 116.273 8.38878 113.973 9.13081 111.696L241.002 304.758C238.977 305.97 236.924 307.138 234.844 308.26ZM16.2169 93.6367L256.806 293.956C258.587 292.575 260.34 291.157 262.062 289.702L19.2096 87.4981C18.1716 89.5197 17.1737 91.5663 16.2169 93.6367ZM276.328 276.078L29.3266 70.4197C30.5716 68.5813 31.8524 66.7704 33.1681 64.9879L280.74 271.122C279.302 272.805 277.831 274.457 276.328 276.078ZM44.2647 51.5213L291.358 257.257C292.614 255.423 293.834 253.561 295.016 251.673L48.8594 46.7167C47.2961 48.2859 45.7642 49.8878 44.2647 51.5213ZM304.05 235.234L62.7314 34.3072C64.5063 32.8949 66.311 31.5201 68.1445 30.1839L306.884 228.964C305.981 231.078 305.036 233.168 304.05 235.234ZM319.882 153.201C320.06 156.142 320.163 159.105 320.187 162.086L129.288 3.13906C132.118 2.56303 134.975 2.06364 137.857 1.64308L319.882 153.201ZM117.474 6.02953C120.949 5.03374 124.472 4.15538 128.038 3.39891L320.193 163.392L320.193 163.5C320.193 167.204 320.073 170.879 319.836 174.521L117.474 6.02953ZM306.423 96.9661C308.232 101.122 309.878 105.369 311.35 109.699L181.228 1.35629C185.67 1.94423 190.056 2.71926 194.376 3.67342L306.423 96.9661ZM164.725 0.0542282C169.671 0.183586 174.561 0.543433 179.386 1.12368L311.951 111.5C313.501 116.236 314.845 121.068 315.972 125.986L164.725 0.0542282ZM257.751 33.782C246.789 25.1529 234.702 17.9489 221.754 12.4406L292.368 71.2357C284.476 59.4296 275.11 48.7378 264.544 39.438L257.751 33.782ZM196.529 4.16492C204.126 5.95633 211.515 8.30311 218.655 11.1613L294.234 74.0898C298.463 80.7098 302.236 87.6633 305.508 94.9032L196.529 4.16492ZM318.881 142.437C319.271 145.54 319.575 148.671 319.793 151.826L139.192 1.45408C142.227 1.03791 145.289 0.709102 148.376 0.47021L318.881 142.437ZM163.122 0.0204195C162.274 0.00682333 161.424 0 160.573 0C156.957 0 153.369 0.123167 149.813 0.36563L318.691 140.978C318.082 136.452 317.293 131.985 316.33 127.585L163.122 0.0204195Z" fill="url(#paint0_linear_8_75)" fill-opacity="0.5"/>
<defs>
<linearGradient id="paint0_linear_8_75" x1="-29.9174" y1="5.39858" x2="137.766" y2="280.27" gradientUnits="userSpaceOnUse">
<stop stop-color="#FF662C"/>
<stop offset="0.419934" stop-color="#0077FF"/>
<stop offset="1" stop-color="#030309"/>
</linearGradient>
</defs>
</svg>
